<svg width="22" height="22" viewBox="0 0 22 22" fill="none" xmlns="http://www.w3.org/2000/svg">
<g clip-path="url(#clip0_1936_9685)">
<path d="M1.91992 9.30664H20.0798V20.4949H1.91992V9.30664Z" fill="#74BCEF"/>
<path d="M0.5 5.96191H21.5V9.86447H0.5V5.96191Z" fill="#22559B"/>
<path d="M9.55322 5.96191H12.4469V20.4953H9.55322V5.96191Z" fill="#FEBF2B"/>
<path d="M9.47044 2.06548C8.81672 1.41177 7.75704 1.41177 7.10332 2.06548C6.44961 2.71901 6.44961 3.77888 7.10332 4.43259C8.10582 5.43491 11 5.96201 11 5.96201C11 5.96201 10.4729 3.06798 9.47044 2.06548Z" fill="#FEBF2B"/>
<path d="M14.8965 2.06562C14.243 1.41172 13.1831 1.41172 12.5294 2.06562C11.5271 3.06811 11 5.96214 11 5.96214C11 5.96214 13.8942 5.43504 14.8965 4.43255C15.5502 3.77902 15.5502 2.71915 14.8965 2.06562Z" fill="#FEBF2B"/>
<path d="M9.55322 5.96191H7.03172C5.3693 7.30186 5.77088 11.7107 5.77088 11.7107L7.01017 10.763L8.24853 11.7118C8.24853 11.7118 7.91035 7.28579 9.55322 5.96191Z" fill="#FEBF2B"/>
<path d="M13.7516 11.7118L14.99 10.763L16.2292 11.7107C16.2292 11.7107 16.631 7.30186 14.9684 5.96191H12.4469C14.0898 7.2856 13.7516 11.7118 13.7516 11.7118Z" fill="#FEBF2B"/>
</g>
<defs>
<clipPath id="clip0_1936_9685">
<rect width="21" height="21" fill="white" transform="translate(0.5 0.5)"/>
</clipPath>
</defs>
</svg>
