<svg xmlns="http://www.w3.org/2000/svg" width="27.058" height="27.179" viewBox="0 0 27.058 27.179">
  <g id="logo-whatsapp" transform="translate(-0.107)">
    <path id="Path_13565" data-name="Path 13565" d="M.107,27.179,2.019,20.2a13.473,13.473,0,1,1,11.674,6.746h-.006a13.466,13.466,0,0,1-6.438-1.639Z" fill="#3ac34c"/>
    <path id="Path_13566" data-name="Path 13566" d="M15.489,13.389c-.273-.656-.551-.567-.757-.578s-.421-.012-.645-.012a1.237,1.237,0,0,0-.9.421,3.774,3.774,0,0,0-1.178,2.807,6.545,6.545,0,0,0,1.375,3.481,15,15,0,0,0,5.75,5.081,19.384,19.384,0,0,0,1.919.709,4.617,4.617,0,0,0,2.12.133,3.467,3.467,0,0,0,2.272-1.6,2.812,2.812,0,0,0,.2-1.6c-.084-.14-.309-.225-.645-.393s-1.992-.983-2.3-1.095-.533-.168-.757.168-.87,1.095-1.066,1.319-.393.253-.729.084a9.194,9.194,0,0,1-2.707-1.67,10.143,10.143,0,0,1-1.873-2.331c-.2-.337-.021-.519.148-.687.151-.151.337-.393.5-.59a2.3,2.3,0,0,0,.337-.561.62.62,0,0,0-.028-.59C16.442,15.719,15.769,14.063,15.489,13.389Z" transform="translate(-5.163 -5.552)" fill="#fff" fill-rule="evenodd"/>
  </g>
</svg>
