<svg xmlns="http://www.w3.org/2000/svg" width="24.085" height="24.086" viewBox="0 0 24.085 24.086">
  <g id="shield" transform="translate(-2 -2)">
    <path id="Path_2877" data-name="Path 2877" d="M25.688,5.305l-11.5-3.284a.547.547,0,0,0-.3,0L2.4,5.305a.547.547,0,0,0-.4.527A22.492,22.492,0,0,0,7.895,21.6a19.525,19.525,0,0,0,5.932,4.44.547.547,0,0,0,.431,0,19.525,19.525,0,0,0,5.932-4.44A22.492,22.492,0,0,0,26.085,5.832.547.547,0,0,0,25.688,5.305Z" fill="#0dbc9c"/>
    <path id="Path_2878" data-name="Path 2878" d="M14.951,4.04,4.006,7.167a21.337,21.337,0,0,0,5.6,14.61,19.255,19.255,0,0,0,5.348,4.082,19.248,19.248,0,0,0,5.348-4.08A21.344,21.344,0,0,0,25.9,7.169ZM19.5,21.031a18.8,18.8,0,0,1-4.548,3.592A18.839,18.839,0,0,1,10.4,21.03,20.111,20.111,0,0,1,5.127,7.985l9.824-2.807,9.824,2.807A20.115,20.115,0,0,1,19.5,21.031Z" transform="translate(-0.908 -0.923)" fill="#11977e"/>
    <g id="d-check" transform="translate(-2.593 -6.048)">
      <path id="Path_2879" data-name="Path 2879" d="M12,19.09l3.09,3.09L21.271,16" fill="none" stroke="#fff" stroke-linecap="round" stroke-linejoin="round" stroke-miterlimit="10" stroke-width="1.2"/>
    </g>
  </g>
</svg>
